<svg id="eirgkKsh4nX1" xmlns="http://www.w3.org/2000/svg" xmlns:xlink="http://www.w3.org/1999/xlink" viewBox="0 0 122.88 118.12" shape-rendering="geometricPrecision" text-rendering="geometricPrecision"><g><path d="M112.29,98.55c0,1.01-.82,1.84-1.84,1.84h-11.83l-1.23-5.23h9.66v-45.54c0-.12.01-.24.03-.35L61.62,18.58L15.27,49.28c.04.15.06.31.06.47v45.39h9.85l-.92,5.23h-12.33c-1.01,0-1.84-.82-1.84-1.84v-46.86c-2.06.79-3.97.8-5.57.27-1.25-.42-2.3-1.17-3.07-2.15-.77-.97-1.26-2.16-1.41-3.46-.22-2.03.39-4.33,2.11-6.48v0c.09-.11.19-.21.3-.3L60.05,0.48c.65-.6,1.65-.66,2.37-.1l57.71,38.99v0c.08.06.15.13.22.2c2.32,2.5,2.9,5.27,2.34,7.62-.28,1.15-.83,2.2-1.59,3.05-.76.86-1.73,1.52-2.84,1.92-1.76.64-3.84.61-5.96-.39-.01,15.6-.01,31.19-.01,46.78v0ZM55.42,51.17c-1.25-3.68-2.37-7.41-3.32-11.19c3.54-3.88,17.21-3.37,21.14-.06L69.6,48.58c1.96-2.57,2.62-3.63,3.78-5.06.49.32.95.68,1.39,1.08c1.04.94,1.96,1.97,2.15,3.42.12.94-.15,1.89-.98,2.86l-8.35,9.73c-1.08-.18-2.13-.43-3.15-.8.47-1.11,1.04-2.34,1.52-3.46l-3.04,3.28c-3.17-.67-5.72-.27-8.09.99L46.36,50.45c-.5-.61-.73-1.21-.73-1.82.01-2.46,3.67-4.58,5.59-5.38l4.2,7.92v0ZM66.28,69.54l-1.65-7.56c7.08,1.32,18.43,15.72,22.1,22.27c1.87,3.34,3.51,7.03,4.85,11.14c2.67,9.96.1,19.29-10.71,21.46-6.77,1.36-19.4,1.46-26.53,1.09-7.66-.4-19.51-.38-22.6-8.25-5-12.69,4.16-27.81,12.5-37.06c1.1-1.22,2.23-2.35,3.41-3.4c3.04-2.67,6.31-5.84,10.22-7.16L54.1,69.1l5.48-7.27h2.89l3.81,7.71v0Zm-3.52,6.2v1.34c1.42.15,2.64.44,3.64.87c1.02.44,1.9,1.1,2.66,1.98.6.68,1.06,1.38,1.38,2.09.33.72.49,1.37.49,1.96c0,.66-.24,1.24-.72,1.72-.49.48-1.07.72-1.76.72-1.3,0-2.15-.7-2.53-2.11-.44-1.65-1.49-2.76-3.16-3.3v8.26c1.64.45,2.95.86,3.92,1.23.98.37,1.85.9,2.61,1.61.82.72,1.46,1.6,1.9,2.61.44,1.02.66,2.12.66,3.33c0,1.51-.35,2.92-1.06,4.23-.71,1.32-1.75,2.39-3.13,3.23-1.38.83-3.01,1.33-4.91,1.48v1.35c0,.78-.08,1.35-.23,1.71s-.48.54-1,.54c-.47,0-.81-.14-1-.43s-.28-.74-.28-1.35v-1.76c-1.54-.17-2.9-.54-4.06-1.09-1.16-.56-2.13-1.25-2.9-2.07-.77-.83-1.35-1.69-1.71-2.58-.37-.89-.56-1.77-.56-2.64c0-.63.24-1.21.75-1.71.49-.51,1.11-.77,1.85-.77.6,0,1.1.14,1.51.41.41.28.69.67.85,1.17.35,1.08.66,1.92.93,2.49.27.58.67,1.1,1.21,1.58.54.47,1.25.84,2.13,1.09v-9.23c-1.78-.49-3.25-1.04-4.44-1.64s-2.16-1.46-2.9-2.57-1.11-2.54-1.11-4.29c0-2.28.72-4.15,2.17-5.6c1.45-1.46,3.54-2.3,6.28-2.54v-1.3c0-1.11.42-1.67,1.25-1.67.85.03,1.27.57,1.27,1.65v0ZM60.24,88.55v-7.6c-1.11.33-1.98.77-2.6,1.31s-.93,1.37-.93,2.47c0,1.04.29,1.84.87,2.37s1.47,1.02,2.66,1.45v0Zm2.52,5.89v8.7c1.33-.26,2.36-.8,3.1-1.6.72-.81,1.09-1.75,1.09-2.82c0-1.15-.35-2.04-1.06-2.67-.71-.64-1.75-1.17-3.13-1.61v0Z" clip-rule="evenodd" fill="#fff" fill-rule="evenodd"/></g></svg>
